<svg width="22" height="18" viewBox="0 0 22 18" fill="none" xmlns="http://www.w3.org/2000/svg">
<path fill-rule="evenodd" clip-rule="evenodd" d="M3.125 2.25C2.50368 2.25 2 2.75368 2 3.375V14.625C2 15.2463 2.50368 15.75 3.125 15.75H18.875C19.4963 15.75 20 15.2463 20 14.625V3.375C20 2.75368 19.4963 2.25 18.875 2.25H3.125ZM0.5 3.375C0.5 1.92525 1.67525 0.75 3.125 0.75H18.875C20.3247 0.75 21.5 1.92525 21.5 3.375V14.625C21.5 16.0747 20.3247 17.25 18.875 17.25H3.125C1.67525 17.25 0.5 16.0747 0.5 14.625V3.375ZM3.65799 4.03954C3.91229 3.71258 4.3835 3.65368 4.71046 3.90799L11 8.79985L17.2895 3.90799C17.6165 3.65368 18.0877 3.71258 18.342 4.03954C18.5963 4.3665 18.5374 4.83771 18.2105 5.09201L11.4605 10.342C11.1896 10.5527 10.8104 10.5527 10.5395 10.342L3.78954 5.09201C3.46258 4.83771 3.40368 4.3665 3.65799 4.03954Z" fill="#0061FF"/>
</svg>