<svg width="18" height="24" viewBox="0 0 18 24" fill="none" xmlns="http://www.w3.org/2000/svg">
<path fill-rule="evenodd" clip-rule="evenodd" d="M9 0.75C7.80653 0.75 6.66193 1.22411 5.81802 2.06802C4.97411 2.91193 4.5 4.05653 4.5 5.25V9H3.75C2.09315 9 0.75 10.3431 0.75 12V20.25C0.75 21.9069 2.09315 23.25 3.75 23.25H14.25C15.9069 23.25 17.25 21.9069 17.25 20.25V12C17.25 10.3431 15.9069 9 14.25 9H6V5.25C6 4.45435 6.31607 3.69129 6.87868 3.12868C7.44129 2.56607 8.20435 2.25 9 2.25C9.79565 2.25 10.5587 2.56607 11.1213 3.12868C11.6839 3.69129 12 4.45435 12 5.25C12 5.66421 12.3358 6 12.75 6C13.1642 6 13.5 5.66421 13.5 5.25C13.5 4.05653 13.0259 2.91193 12.182 2.06802C11.3381 1.22411 10.1935 0.75 9 0.75ZM3.75 10.5C2.92157 10.5 2.25 11.1716 2.25 12V20.25C2.25 21.0784 2.92157 21.75 3.75 21.75H14.25C15.0784 21.75 15.75 21.0784 15.75 20.25V12C15.75 11.1716 15.0784 10.5 14.25 10.5H3.75Z" fill="#0061FF"/>
</svg>