<svg width="20" height="22" viewBox="0 0 20 22" fill="none" xmlns="http://www.w3.org/2000/svg">
<path d="M14.1251 5.75L14.8731 5.80546L14.8731 5.8054L14.1251 5.75ZM5.87511 5.75L5.12709 5.8044L5.12709 5.80446L5.87511 5.75ZM1.01699 19.7469L1.75507 19.88L1.75508 19.88L1.01699 19.7469ZM18.9837 19.7469L19.7218 19.6137L19.7218 19.6137L18.9837 19.7469ZM13.3772 5.69454C13.2142 7.89219 11.5676 9.5 10.0001 9.5V11C12.5576 11 14.6685 8.56437 14.8731 5.80546L13.3772 5.69454ZM10.0001 9.5C8.43184 9.5 6.78304 7.89188 6.62313 5.69554L5.12709 5.80446C5.32812 8.56562 7.44339 11 10.0001 11V9.5ZM6.62314 5.6956C6.46707 3.54968 7.95367 2 10.0001 2V0.5C7.07781 0.5 4.90816 2.79407 5.12709 5.8044L6.62314 5.6956ZM10.0001 2C12.0418 2 13.5329 3.59156 13.3772 5.6946L14.8731 5.8054C15.0923 2.84594 12.9272 0.5 10.0001 0.5V2ZM10.0001 12.5C5.70904 12.5 1.13261 14.8802 0.278897 19.6138L1.75508 19.88C2.43324 16.1198 6.13493 14 10.0001 14V12.5ZM0.278903 19.6137C0.20209 20.0395 0.276721 20.4953 0.529091 20.864C0.792991 21.2496 1.22812 21.5 1.75011 21.5V20C1.7336 20 1.73736 19.997 1.75027 20.0039C1.76214 20.0102 1.76726 20.0173 1.76692 20.0168C1.76584 20.0152 1.75866 20.0037 1.75392 19.9789C1.74922 19.9543 1.74778 19.9205 1.75507 19.88L0.278903 19.6137ZM1.75011 21.5H18.2501V20H1.75011V21.5ZM18.2501 21.5C18.7721 21.5 19.2074 21.2498 19.4715 20.8641C19.724 20.4954 19.7986 20.0395 19.7218 19.6137L18.2456 19.88C18.2529 19.9205 18.2515 19.9542 18.2468 19.9788C18.242 20.0036 18.2349 20.0151 18.2338 20.0166C18.2335 20.0171 18.2386 20.0101 18.2504 20.0038C18.2632 19.9969 18.2669 20 18.2501 20V21.5ZM19.7218 19.6137C18.8676 14.8802 14.2912 12.5 10.0001 12.5V14C13.8653 14 17.567 16.1198 18.2456 19.8801L19.7218 19.6137Z" fill="#0061FF"/>
</svg>