<svg width="32" height="32" viewBox="0 0 32 32" fill="none" xmlns="http://www.w3.org/2000/svg">
<path d="M25.0669 20.9425L14.415 1.16125C13.66 -0.24125 11.6487 -0.24125 10.8931 1.16125L0.241848 20.9425H0.241848C-0.281788 21.9151 0.0821392 23.128 1.0547 23.6516C1.34525 23.808 1.66999 23.8902 1.99997 23.8906H23.3056C24.4102 23.8908 25.3057 22.9955 25.3059 21.8909C25.3059 21.5599 25.2238 21.234 25.0669 20.9425V20.9425ZM12.6544 20.8281C11.964 20.8281 11.4043 20.2685 11.4043 19.5781C11.4043 18.8878 11.964 18.3281 12.6544 18.3281C13.3447 18.3281 13.9044 18.8878 13.9044 19.5781C13.9044 20.2685 13.3447 20.8281 12.6544 20.8281ZM14.0119 8.25625L13.6531 15.8813C13.6531 16.4335 13.2054 16.8813 12.6531 16.8813C12.1008 16.8813 11.6531 16.4335 11.6531 15.8813L11.2943 8.25937V8.25937C11.2612 7.51004 11.8417 6.87569 12.5911 6.84252C12.6068 6.84182 12.6224 6.8414 12.6381 6.84125H12.6512C13.4016 6.84086 14.0103 7.44888 14.0107 8.1993C14.0107 8.21954 14.0102 8.23978 14.0094 8.26L14.0119 8.25625Z" fill="#B30038"/>
</svg>
